<svg width="16" height="16" viewBox="0 0 16 16" fill="none" xmlns="http://www.w3.org/2000/svg">
<g clip-path="url(#clip0_159_665)">
<path d="M8 0C8.55707 4.44565e-06 9.10286 0.0570938 9.62988 0.154297L10.1084 1.83887C11.0381 2.1229 11.8805 2.59142 12.5889 3.19629L14.3701 2.74414C14.7227 3.12709 15.0476 3.54374 15.3262 4C15.6048 4.45626 15.8256 4.93086 16 5.41113L14.6973 6.64258C14.7961 7.08074 14.8486 7.53401 14.8486 8C14.8486 8.46612 14.7961 8.91941 14.6973 9.35742L16 10.5889C15.8255 11.0691 15.6048 11.5437 15.3262 12C15.0476 12.4561 14.7227 12.8729 14.3701 13.2559L12.5889 12.8037C11.8805 13.4086 11.0381 13.8771 10.1084 14.1611L9.62988 15.8457C9.1029 15.9429 8.55707 16 8 16C7.44306 16 6.897 15.9429 6.37012 15.8457L5.8916 14.1611C4.96205 13.8771 4.11952 13.4086 3.41113 12.8037L1.62988 13.2559C1.27744 12.8729 0.952214 12.4561 0.673828 12C0.395218 11.5437 0.174444 11.0691 0 10.5889L1.30273 9.35742C1.20389 8.91945 1.15137 8.46612 1.15137 8C1.15137 7.53401 1.20388 7.08078 1.30273 6.64258L0 5.41113C0.174461 4.93086 0.395218 4.45626 0.673828 4C0.952219 3.54371 1.27744 3.12709 1.62988 2.74414L3.41113 3.19629C4.11957 2.59142 4.96209 2.12292 5.8916 1.83887L6.37012 0.154297C6.89696 0.0570856 7.44306 0 8 0ZM8 5C6.34315 5 5 6.34315 5 8C5 9.65685 6.34315 11 8 11C9.65685 11 11 9.65685 11 8C11 6.34315 9.65685 5 8 5Z" fill="#7B809A"/>
</g>
<defs>
<clipPath id="clip0_159_665">
<rect width="16" height="16" fill="white"/>
</clipPath>
</defs>
</svg>
