<svg width="24" height="24" viewBox="0 0 24 24" fill="none" xmlns="http://www.w3.org/2000/svg">
<path fill-rule="evenodd" clip-rule="evenodd" d="M11.3408 2.1063C11.7333 1.96719 12.1709 1.96431 12.5703 2.09947L19.208 4.32603C19.951 4.57412 20.454 5.25745 20.458 6.02232L20.5 12.6629C20.513 14.676 19.7785 16.6284 18.4346 18.1581C17.8165 18.86 17.0243 19.4635 16.0127 20.0028L12.4453 21.91C12.3337 21.9688 12.2106 21.9988 12.0869 21.9999C11.9633 22.0008 11.8392 21.9716 11.7285 21.9139L8.12698 20.0506C7.10413 19.5201 6.30487 18.9256 5.68069 18.2333C4.31457 16.7192 3.55512 14.7757 3.54202 12.7596L3.50002 6.12388C3.496 5.35803 3.98959 4.67084 4.72854 4.41294L11.3408 2.1063ZM15.7451 9.21861C15.4482 8.93326 14.9697 8.93521 14.6768 9.22447L11.3086 12.5448L9.92874 11.2186C9.63173 10.9335 9.15426 10.9362 8.86038 11.2254C8.56742 11.5147 8.5712 11.9801 8.86819 12.2655L10.7832 14.1092C10.9322 14.2524 11.1261 14.3221 11.3194 14.3202C11.5125 14.3192 11.7047 14.2473 11.8516 14.1024L15.751 10.2577C16.0437 9.96844 16.0408 9.50391 15.7451 9.21861Z" fill="white"/>
</svg>
