<svg width="50" height="47" viewBox="0 0 50 47" fill="none" xmlns="http://www.w3.org/2000/svg">
<path d="M1.37211 38.8958C-0.457369 40.5898 -0.457369 43.3332 1.37211 45.0272C2.28685 45.8742 3.48569 46.2963 4.68452 46.2963C5.88336 46.2963 7.0822 45.8742 7.99694 45.0272L23.3727 30.79L16.7478 24.6586L1.37211 38.8958ZM39.8005 12.5085L46.4909 9.30262L50 3.02668L46.7313 0L39.9535 3.24927L36.4912 9.44427L28.3366 16.9951L31.6459 20.0593L39.8005 12.5085ZM41.2647 28.9659C41.0524 28.9543 40.8495 28.9081 40.6341 28.9081C39.4914 28.9081 38.4081 29.1249 37.3966 29.4718L18.1715 11.6702C18.5461 10.7336 18.7802 9.73046 18.7802 8.67243C18.7802 8.47296 18.7303 8.28506 18.7178 8.08848C18.3869 3.57593 14.372 0 9.41432 0C7.97196 0 6.62015 0.326661 5.39946 0.867243L11.6216 6.62862C11.9494 6.93216 12.1741 7.29062 12.324 7.66931C12.733 8.69555 12.5113 9.88946 11.6216 10.7162C11.0128 11.2799 10.2135 11.5632 9.41432 11.5632C9.04593 11.5632 8.68065 11.4881 8.33099 11.3667C7.92201 11.225 7.53489 11.0198 7.20708 10.7162L0.984983 4.95485C0.401174 6.08515 0.0483907 7.33687 0.0483907 8.67243C0.0483907 13.263 3.91027 16.9806 8.78368 17.287C8.99597 17.2986 9.1989 17.3449 9.41432 17.3449C10.557 17.3449 11.6403 17.128 12.6518 16.7811L31.8769 34.5827C31.5023 35.5194 31.2681 36.5225 31.2681 37.5805C31.2681 37.78 31.3181 37.9679 31.3306 38.1645C31.6615 42.677 35.6764 46.2529 40.6341 46.2529C42.0764 46.2529 43.4282 45.9263 44.6489 45.3857L38.4268 39.6243C38.099 39.3208 37.8742 38.9623 37.7244 38.5836C37.3154 37.5574 37.5371 36.3635 38.4268 35.5367C39.0356 34.973 39.8349 34.6897 40.6341 34.6897C41.0025 34.6897 41.3677 34.7649 41.7174 34.8863C42.1264 35.0279 42.5135 35.2332 42.8413 35.5367L49.0634 41.2981C49.6472 40.1678 50 38.9161 50 37.5805C50 32.9899 46.1381 29.2723 41.2647 28.9659Z" fill="#555555"/>
</svg>
