<svg width="52" height="48" viewBox="0 0 52 48" fill="none" xmlns="http://www.w3.org/2000/svg">
<path d="M8.56173 5.32138C10.1488 5.32138 11.4353 4.13015 11.4353 2.66069C11.4353 1.19123 10.1488 0 8.56173 0C7.49808 0 6.5695 0.535064 6.07266 1.33034H5.68818C3.30767 1.33034 1.37787 3.1172 1.37787 5.32138V17.2945H4.25141V5.32138C4.25141 4.58665 4.89468 3.99103 5.68818 3.99103H6.07266C6.5695 4.78631 7.49808 5.32138 8.56173 5.32138Z" fill="#555555"/>
<path fill-rule="evenodd" clip-rule="evenodd" d="M5.91744 17.2945H4.2505H1.37696C0.583459 17.2945 -0.0665505 17.8914 0.00546052 18.6231C0.339496 22.0171 1.94546 25.2127 4.56926 27.6421C6.4933 29.4236 8.86225 30.6983 11.4344 31.3735V34.5889C11.4344 36.3269 12.6341 37.8053 14.3085 38.353C14.3697 43.6311 19.0097 47.8924 24.7245 47.8924C30.4775 47.8924 35.1411 43.5742 35.1411 38.2474V32.926C35.1411 30.1707 37.5533 27.9372 40.529 27.9372C43.5047 27.9372 45.9169 30.1707 45.9169 32.926V36.1464C44.2427 36.6942 43.0433 38.1726 43.0433 39.9103C43.0433 42.1146 44.9731 43.9013 47.3536 43.9013C49.7342 43.9013 51.664 42.1146 51.664 39.9103C51.664 38.1726 50.4645 36.6942 48.7904 36.1464V32.926C48.7904 28.7014 45.0916 25.2765 40.529 25.2765C35.9664 25.2765 32.2675 28.7014 32.2675 32.926V38.2474C32.2675 42.1047 28.8904 45.2317 24.7245 45.2317C20.5965 45.2317 17.2431 42.1614 17.1823 38.3526C18.856 37.8045 20.055 36.3264 20.055 34.5889V31.3735C22.6271 30.6983 24.9962 29.4236 26.9202 27.6421C29.544 25.2127 31.1499 22.0171 31.4839 18.6231C31.5561 17.8914 30.9059 17.2945 30.1124 17.2945V5.32137C30.1124 3.11719 28.1827 1.33034 25.8021 1.33034H25.4176C24.9208 0.535064 23.9922 0 22.9285 0C21.3415 0 20.055 1.19123 20.055 2.66069C20.055 4.13015 21.3415 5.32137 22.9285 5.32137C23.9922 5.32137 24.9208 4.78631 25.4176 3.99103H25.8021C26.5956 3.99103 27.2388 4.58665 27.2388 5.32137V17.2945H25.572C24.7785 17.2945 24.1478 17.8943 24.0126 18.6184C23.7195 20.1874 22.9101 21.647 21.6777 22.788C20.1043 24.245 17.9701 25.0635 15.7447 25.0635C13.5194 25.0635 11.3852 24.245 9.81167 22.788C8.57935 21.647 7.76987 20.1874 7.47677 18.6184C7.34157 17.8943 6.71083 17.2945 5.91744 17.2945ZM26.6361 19.9552H28.3523C27.8154 22.1364 26.6241 24.1536 24.8883 25.7608C22.4633 28.0061 19.1742 29.2676 15.7447 29.2676C12.3152 29.2676 9.02619 28.0061 6.6012 25.7608C4.8654 24.1536 3.67403 22.1364 3.13703 19.9552H4.85327C5.35716 21.7233 6.35911 23.3539 7.77979 24.6694C9.89227 26.6254 12.7573 27.7242 15.7447 27.7242C18.7322 27.7242 21.5972 26.6254 23.7097 24.6694C25.1304 23.3539 26.1322 21.7233 26.6361 19.9552ZM47.3536 38.58C48.1472 38.58 48.7904 39.1756 48.7904 39.9103C48.7904 40.6451 48.1472 41.2407 47.3536 41.2407C46.5601 41.2407 45.9169 40.6451 45.9169 39.9103C45.9169 39.1756 46.5601 38.58 47.3536 38.58ZM17.1814 31.9282V34.5889C17.1814 35.3237 16.5382 35.9193 15.7447 35.9193C14.9511 35.9193 14.3079 35.3237 14.3079 34.5889V31.9282H17.1814Z" fill="#555555"/>
</svg>
