<svg width="48" height="56" viewBox="0 0 48 56" fill="none" xmlns="http://www.w3.org/2000/svg">
<path d="M23.846 9.97164C25.1205 9.97164 26.1537 9.01501 26.1537 7.83491C26.1537 6.65483 25.1205 5.69818 23.846 5.69818V9.97164ZM7.04945 43.4506C7.95409 44.2816 9.41521 44.2765 10.313 43.4389C11.2107 42.6013 11.2051 41.2483 10.3004 40.417L7.04945 43.4506ZM18.8488 15.1966C18.1421 16.1785 18.4285 17.5051 19.4891 18.1597C20.5494 18.8143 21.982 18.549 22.6891 17.5671L18.8488 15.1966ZM26.9229 7.83491L28.8429 9.02017C29.55 8.03827 29.2632 6.71164 28.2029 6.05706L26.9229 7.83491ZM18.9722 0.359103C17.9119 -0.295507 16.479 -0.0301817 15.7719 0.951719C15.0651 1.93362 15.3516 3.26025 16.4122 3.91483L18.9722 0.359103ZM23.846 45.495C22.5716 45.495 21.5383 46.4517 21.5383 47.6318C21.5383 48.8118 22.5716 49.7685 23.846 49.7685V45.495ZM40.6425 12.0161C39.7379 11.1849 38.2767 11.1901 37.3788 12.0277C36.4813 12.8654 36.4868 14.2182 37.3914 15.0495L40.6425 12.0161ZM28.8429 40.3589C29.55 39.3771 29.2632 38.0504 28.2029 37.3959C27.1426 36.7413 25.7097 37.0065 25.0026 37.9885L28.8429 40.3589ZM20.7691 47.7206L18.8488 46.5355C18.1421 47.5172 18.4285 48.844 19.4891 49.4984L20.7691 47.7206ZM28.7198 55.1964C29.7801 55.8511 31.2127 55.5858 31.9198 54.6038C32.6269 53.622 32.3401 52.2952 31.2798 51.6408L28.7198 55.1964ZM23.846 5.69818C10.6762 5.69818 0 15.5836 0 27.7778H4.61535C4.61535 17.9437 13.2252 9.97164 23.846 9.97164V5.69818ZM0 27.7778C0 33.9051 2.6985 39.4526 7.04945 43.4506L10.3004 40.417C6.7869 37.1888 4.61535 32.7199 4.61535 27.7778H0ZM22.6891 17.5671L28.8429 9.02017L25.0026 6.64968L18.8488 15.1966L22.6891 17.5671ZM28.2029 6.05706L18.9722 0.359103L16.4122 3.91483L25.6429 9.61279L28.2029 6.05706ZM23.846 49.7685C37.0158 49.7685 47.692 39.8831 47.692 27.6889H43.0766C43.0766 37.523 34.4669 45.495 23.846 45.495V49.7685ZM47.692 27.6889C47.692 21.5616 44.9935 16.014 40.6425 12.0161L37.3914 15.0495C40.905 18.2779 43.0766 22.7465 43.0766 27.6889H47.692ZM25.0026 37.9885L18.8488 46.5355L22.6891 48.9058L28.8429 40.3589L25.0026 37.9885ZM19.4891 49.4984L28.7198 55.1964L31.2798 51.6408L22.0491 45.9429L19.4891 49.4984Z" fill="#555555"/>
</svg>
