<svg width="32" height="32" viewBox="0 0 32 32" fill="none" xmlns="http://www.w3.org/2000/svg">
<g clip-path="url(#clip0_2_921)">
<mask id="mask0_2_921" style="mask-type:luminance" maskUnits="userSpaceOnUse" x="0" y="0" width="32" height="32">
<path d="M31.987 6.10352e-05H0.000488281V31.9866H31.987V6.10352e-05Z" fill="white"/>
</mask>
<g mask="url(#mask0_2_921)">
<path d="M15.9931 27.9882C20.7775 27.9882 24.6561 24.1097 24.6561 19.3252C24.6561 14.5408 20.7775 10.6622 15.9931 10.6622C11.2086 10.6622 7.33008 14.5408 7.33008 19.3252C7.33008 24.1097 11.2086 27.9882 15.9931 27.9882Z" stroke="#111827" stroke-width="2.66554" stroke-linecap="round" stroke-linejoin="round"/>
<path d="M27.9888 13.9941L29.3215 12.6614" stroke="#111827" stroke-width="2.66554" stroke-linecap="round" stroke-linejoin="round"/>
<path d="M27.9888 24.6563L29.3215 25.9891" stroke="#111827" stroke-width="2.66554" stroke-linecap="round" stroke-linejoin="round"/>
<path d="M29.3213 19.3252H30.6541" stroke="#111827" stroke-width="2.66554" stroke-linecap="round" stroke-linejoin="round"/>
<path d="M3.9983 24.6563L2.66553 25.9891" stroke="#111827" stroke-width="2.66554" stroke-linecap="round" stroke-linejoin="round"/>
<path d="M3.9983 13.9941L2.66553 12.6614" stroke="#111827" stroke-width="2.66554" stroke-linecap="round" stroke-linejoin="round"/>
<path d="M2.66578 19.3252H1.33301" stroke="#111827" stroke-width="2.66554" stroke-linecap="round" stroke-linejoin="round"/>
<path d="M14.4517 10.8071L18.82 4.56678C18.9428 4.39123 19.1062 4.24791 19.2964 4.14895C19.4864 4.05 19.6975 3.99834 19.9118 3.99834H24.6547C24.8985 3.99832 25.1376 4.06519 25.3461 4.19166C25.5545 4.31813 25.7243 4.49935 25.8369 4.71561C25.9495 4.93186 26.0006 5.17486 25.9847 5.41815C25.9687 5.66144 25.8864 5.8957 25.7466 6.09544L21.2816 12.474" stroke="#111827" stroke-width="2.66554" stroke-linecap="round" stroke-linejoin="round"/>
<path d="M15.9935 8.6038L13.1676 4.56678C13.0447 4.39123 12.8813 4.24791 12.6912 4.14895C12.5011 4.05 12.29 3.99834 12.0757 3.99834H7.33283C7.08906 3.99832 6.8499 4.06519 6.64144 4.19166C6.433 4.31813 6.26324 4.49935 6.15064 4.71561C6.03804 4.93186 5.98692 5.17486 6.00285 5.41815C6.01877 5.66144 6.10113 5.8957 6.24095 6.09544L10.7059 12.474" stroke="#111827" stroke-width="2.66554" stroke-linecap="round" stroke-linejoin="round"/>
</g>
</g>
<defs>
<clipPath id="clip0_2_921">
<rect width="31.9865" height="31.9865" fill="white"/>
</clipPath>
</defs>
</svg>
