<svg width="32" height="32" viewBox="0 0 32 32" fill="none" xmlns="http://www.w3.org/2000/svg">
<g clip-path="url(#clip0_2_969)">
<mask id="mask0_2_969" style="mask-type:luminance" maskUnits="userSpaceOnUse" x="0" y="0" width="32" height="32">
<path d="M31.9865 -6.10352e-05H0V31.9865H31.9865V-6.10352e-05Z" fill="white"/>
</mask>
<g mask="url(#mask0_2_969)">
<path d="M15.9935 27.9881C22.6181 27.9881 27.9884 22.6178 27.9884 15.9932C27.9884 9.36857 22.6181 3.99823 15.9935 3.99823C9.36887 3.99823 3.99854 9.36857 3.99854 15.9932C3.99854 22.6178 9.36887 27.9881 15.9935 27.9881Z" stroke="#111827" stroke-width="2.66554" stroke-linecap="round" stroke-linejoin="round"/>
<path d="M15.9937 27.9881C12.4396 21.3634 12.4396 10.6228 15.9937 3.99823" stroke="#111827" stroke-width="2.66554" stroke-linecap="round" stroke-linejoin="round"/>
<path d="M4.16504 17.3259C10.6977 13.7718 21.2891 13.7718 27.8217 17.3259" stroke="#111827" stroke-width="2.66554" stroke-linecap="round" stroke-linejoin="round"/>
<path d="M23.7904 6.88898C22.2605 7.87616 20.9938 9.22086 20.0998 10.8071C19.2059 12.3932 18.7114 14.1732 18.6592 15.9931C18.7114 17.8132 19.2059 19.5931 20.0998 21.1793C20.9938 22.7655 22.2605 24.1102 23.7904 25.0974" stroke="#111827" stroke-width="2.66554" stroke-linecap="round" stroke-linejoin="round"/>
<path d="M6.39746 8.81805C8.2463 10.7534 9.29385 13.3169 9.32957 15.9932C9.29385 18.6694 8.24623 21.233 6.39746 23.1683" stroke="#111827" stroke-width="2.66554" stroke-linecap="round" stroke-linejoin="round"/>
</g>
</g>
<defs>
<clipPath id="clip0_2_969">
<rect width="31.9865" height="31.9865" fill="white"/>
</clipPath>
</defs>
</svg>
