<svg width="32" height="32" viewBox="0 0 32 32" fill="none" xmlns="http://www.w3.org/2000/svg">
<g clip-path="url(#clip0_2_995)">
<mask id="mask0_2_995" style="mask-type:luminance" maskUnits="userSpaceOnUse" x="0" y="0" width="32" height="32">
<path d="M31.4863 0.500061V31.4864H0.5V0.500061H31.4863Z" fill="white" stroke="white"/>
</mask>
<g mask="url(#mask0_2_995)">
<path d="M22.6573 7.08642C23.8902 6.86384 25.1816 6.73457 26.597 6.68659C27.354 6.66126 27.9884 7.26101 27.9884 8.01802V23.794C27.9884 24.5164 27.4113 25.1135 26.6903 25.1241C22.5694 25.1868 19.4667 25.9465 15.9935 27.9883C12.5203 25.9465 9.41759 25.1868 5.29665 25.1255C4.57563 25.1148 3.99854 24.5164 3.99854 23.794V8.01802C3.99854 7.273 4.61028 6.66126 5.35396 6.68525C9.44691 6.8172 12.5363 7.58754 15.9935 9.52406" stroke="#111827" stroke-width="2.66554" stroke-linecap="round" stroke-linejoin="round"/>
<path d="M22.6575 20.3088V4.01433C22.6575 3.04274 21.6366 2.36436 20.769 2.80018C18.4286 3.97302 16.4561 6.35734 15.9937 8.81231V27.9882C16.5214 25.1907 19.007 22.4852 21.7659 21.5589C22.3017 21.379 22.6575 20.8739 22.6575 20.3088Z" stroke="#111827" stroke-width="2.66554" stroke-linecap="round" stroke-linejoin="round"/>
</g>
</g>
<defs>
<clipPath id="clip0_2_995">
<rect width="31.9865" height="31.9865" fill="white"/>
</clipPath>
</defs>
</svg>
